<svg xmlns="http://www.w3.org/2000/svg" enable-background="new 0 0 68 68" viewBox="0 0 68 68"><path fill="#FF7E7E" d="M59.9975,66H8.0019c-1.302,0-2.2733-1.178-2.0356-2.4593c2.8002-15.6854,22.0919-20.883,22.0919-20.883
				c0.527,0.527,1.3949,0.93,2.4489,1.1883c1.0539,0.2583,2.2733,0.3927,3.4925,0.3927c2.4386,0,4.8978-0.527,5.9415-1.581
				c0,0,19.2916,5.1975,22.0919,20.883C62.2707,64.822,61.2994,66,59.9975,66z"/><path fill="#EF3D3D" d="M60.0012,65.9974h-52c-1.3,0-2.27-1.18-2.03-2.46c0.13-0.74,0.3-1.46,0.51-2.16
				c33.9,0.52,42.69-7.98,44.91-13.2c4.71,3.29,9.37,8.25,10.64,15.36C62.2712,64.8174,61.3012,65.9974,60.0012,65.9974z"/><polygon fill="#DEE1E6" points="33.998 54.33 34.001 54.33 34 54.327"/><path fill="#FFF" d="M39.9412,42.6674l-5.94,11.66l-5.95-11.66h0.02C30.1812,44.7574,37.8312,44.7574,39.9412,42.6674z"/><path fill="#FBC41A" d="M39.9497,37.7888v4.87c-2.1,2.1-9.79,2.1-11.89,0v-4.86c1.65,0.87,3.61,1.42,5.94,1.48
			C36.3397,39.2188,38.2997,38.6688,39.9497,37.7888z"/><path fill="#FBC41A" d="M48.3012,24.1074c-0.58,3.59-3.29,14.9-14.3,15.18c-11.01-0.28-13.72-11.59-14.3-15.18
				c0.22-0.03,0.42-0.19,0.45-0.48c0.39-4.15,1.48-9.07,4.4-9.07c0,0,4.58,0.69,9.45,0.69s9.45-0.69,9.45-0.69
				c2.93,0,4.0099,4.92,4.4,9.07C47.8812,23.9174,48.0812,24.0774,48.3012,24.1074z"/><path fill="#F59F02" d="M48.3012,24.1074c-0.58,3.59-3.29,14.9-14.3,15.18c-3.15-0.08-5.63-1.07-7.57-2.52
				c7.92-1.28,14.18-10.46,14.86-21.94c1.33-0.15,2.16-0.27,2.16-0.27c3.9214,0,4.2909,8.8613,4.45,9.26
				C47.9804,23.9757,48.1028,24.0743,48.3012,24.1074z"/><path fill="#A3A6A8" d="M41.3859,2.6553c-3.8447-0.8738-10.9225-0.8738-14.7781,0c-5.8981,1.3326-9.6992,7.0778-8.7708,13.0524
				l1.2324,7.9503c0.0981,0.6329,1.0212,0.611,1.0816-0.0266c0.3934-4.1549,1.4771-9.0706,4.4033-9.0706
				c0,0,4.5748,0.6881,9.448,0.6881s9.448-0.6881,9.448-0.6881c2.9261,0,4.0099,4.9157,4.4033,9.0706
				c0.0604,0.6375,0.9835,0.6594,1.0816,0.0266l1.2324-7.9503C51.096,9.7331,47.2841,3.9879,41.3859,2.6553z"/><path fill="#929293" d="M50.1712,15.7074c-1.3353,7.0523-0.8309,8.5924-1.87,8.4c-0.2416-0.0403-0.4085-0.1899-0.45-0.48
				c-0.39-4.15-1.47-9.07-4.4-9.07c0,0-0.83,0.12-2.16,0.27c0.05-0.69,0.07-1.39,0.07-2.09c0-3.71-0.58-7.23-1.63-10.38
				c0.6,0.09,1.15,0.19,1.65,0.3C47.2812,3.9874,51.0912,9.7374,50.1712,15.7074z"/><circle cx="27.831" cy="22.863" r="2.016"/><circle cx="40.168" cy="22.863" r="2.016"/><path d="M63.0176,63.3651c-2.5948-14.5337-18.3813-20.295-22.0679-21.4511v-3.5276c5.7008-3.3665,7.6315-10.3109,8.2304-13.504
				c1.149-0.6886,0.6339-1.6184,1.9756-9.0207C52.168,9.3475,47.9736,3.118,41.6074,1.6801
				C37.6119,0.7724,30.384,0.7747,26.3877,1.6796c-6.3613,1.437-10.5513,7.6665-9.5391,14.1816l1.2324,7.9502
				c0.0729,0.47,0.3602,0.8406,0.741,1.0696c0.5988,3.1939,2.5306,10.1442,8.2375,13.5095v3.5203
				c-3.6697,1.1495-19.4806,6.908-22.0767,21.4474c-0.352,1.899,1.0951,3.6416,3.019,3.6416h51.9956
				C61.9278,66.9999,63.367,65.248,63.0176,63.3651z M37.7251,44.8148l-3.7246,7.311l-3.7294-7.3082
				C32.981,45.4814,35.1727,45.2418,37.7251,44.8148z M26.8291,3.6303c3.7076-0.8396,10.631-0.8415,14.3364,0.0005
				c5.3452,1.2075,8.8652,6.4448,8.0137,11.9238l-0.7554,4.875c-0.5671-3.0218-2.0801-7.3126-5.1216-6.8608
				c-0.0449,0.0068-4.561,0.6787-9.3013,0.6787c-9.3183,0-10.8955-2.3301-13.1105,1.9941
				c-0.0479,0.1199-0.7719,1.3533-1.2977,4.1332c-0.0037,0.0193-0.0086,0.0353-0.0123,0.0547l-0.7554-4.875
				C17.9736,10.0741,21.4893,4.8368,26.8291,3.6303z M20.7978,24.5697c0.0388-0.0468,0.0618-0.1061,0.0949-0.1578
				c0.0399-0.0624,0.0825-0.1198,0.1133-0.1885c0.0662-0.1461,0.1129-0.3038,0.1337-0.4739c0.001-0.0087,0.006-0.0154,0.0068-0.0241
				c0.478-5.0474,1.7256-8.0864,3.3447-8.1631c0.6714,0.0972,4.9258,0.6865,9.5112,0.6865c4.585,0,8.8394-0.5894,9.5107-0.6865
				c1.226,0.058,2.2381,1.8171,2.8652,4.8577c0.5784,2.8136,0.2908,3.5067,0.8257,4.1511
				c-1.4106,7.4221-5.7283,13.5111-13.1787,13.708C26.4788,38.0838,22.2105,32.002,20.7978,24.5697z M33.9756,40.287
				c0.0083,0.0005,0.0171,0.0005,0.0254,0.0005s0.0171,0,0.0254-0.0005c1.8531-0.0471,3.4852-0.3838,4.9233-0.9314v2.8225
				c-1.1059,0.7702-3.2342,1.0175-4.5971,1.0472c-1.5374,0.0331-4.0293-0.1743-5.293-1.0452v-2.8216
				C30.4958,39.9045,32.1257,40.2399,33.9756,40.287z M59.9976,64.9999H8.0019c-0.6813,0-1.1758-0.6116-1.0513-1.2832
				c2.3408-13.111,17.0251-18.6845,20.5884-19.853l5.5712,10.9184c0.1602,0.3143,0.5156,0.5474,0.8882,0.5474h0.0024
				c0.6393,0,0.9678-0.6293,0.8781-0.5292c8.5878-16.8459,4.3579-8.5485,5.576-10.938c3.5533,1.1639,18.2521,6.7371,20.5947,19.8607
				C61.1714,64.3766,60.6876,64.9999,59.9976,64.9999z"/><path d="M29.7632 19.5638c.8882.419 1.5464-.9297.6396-1.3564-1.6104-.7588-3.5322-.7588-5.1426 0-.3745.1763-.5352.6235-.3584.998.1768.375.6216.5352.998.3584C27.1089 18.9945 28.5542 18.9945 29.7632 19.5638zM38.2363 19.5638c1.208-.5693 2.6523-.5703 3.8633 0 .3765.1768.8218.0166.998-.3584.1768-.375.0161-.8218-.3584-.998-1.6108-.7588-3.5337-.7588-5.1426 0-.3745.1763-.5352.6235-.3584.998C37.4152 19.5809 37.8626 19.7401 38.2363 19.5638z"/><g><path d="M33.9995,33.6176c-1.4839,0-2.9678-0.4624-4.1245-1.3867c-0.4312-0.3452-0.5015-0.9741-0.1567-1.4058
					c0.3447-0.4321,0.9731-0.5015,1.4058-0.1567c1.5581,1.2471,4.1919,1.2456,5.751,0.0005
					c0.4307-0.3447,1.061-0.2749,1.4053,0.1563c0.3452,0.4312,0.2749,1.0605-0.1563,1.4053
					C36.9678,33.1552,35.4839,33.6176,33.9995,33.6176z"/></g><g><path fill="#FFF" d="M47.9639,61.7758h-3c-0.4141,0-0.75-0.3359-0.75-0.75s0.3359-0.75,0.75-0.75h3
			c0.4141,0,0.75,0.3359,0.75,0.75S48.3779,61.7758,47.9639,61.7758z"/></g><g><path fill="#FFF" d="M55.4639,61.7758h-3.5024c-0.4141,0-0.75-0.3359-0.75-0.75s0.3359-0.75,0.75-0.75h3.5024
			c0.4141,0,0.75,0.3359,0.75,0.75S55.8779,61.7758,55.4639,61.7758z"/></g></svg>